<svg width="8" height="5" viewBox="0 0 8 5" fill="none" xmlns="http://www.w3.org/2000/svg">
<path d="M7.84201 1.03351C7.84201 1.09417 7.81601 1.14617 7.76401 1.18951L4.38401 4.58251C4.34068 4.62584 4.28435 4.64751 4.21501 4.64751C4.14568 4.64751 4.09368 4.62584 4.05901 4.58251L0.679013 1.18951C0.627013 1.14617 0.601013 1.09417 0.601013 1.03351C0.601013 0.97284 0.627013 0.916507 0.679013 0.864507L1.04301 0.500507C1.08635 0.448507 1.13835 0.422507 1.19901 0.422507C1.25968 0.422507 1.31601 0.448507 1.36801 0.500507L4.21501 3.34751L7.07501 0.500507C7.11835 0.448507 7.17468 0.422507 7.24401 0.422507C7.31335 0.422507 7.36535 0.448507 7.40001 0.500507L7.76401 0.864507C7.81601 0.90784 7.84201 0.964174 7.84201 1.03351Z" fill="black"/>
</svg>
