<svg width="10" height="17" viewBox="0 0 10 17" fill="none" xmlns="http://www.w3.org/2000/svg">
<path d="M0.500071 14.7766C0.500071 14.6413 0.558018 14.5254 0.673913 14.4289L7.01914 8.05467L0.673914 1.70944C0.558019 1.59355 0.500072 1.468 0.500072 1.33279C0.500072 1.19758 0.55802 1.07202 0.673914 0.956129L1.48518 0.144867C1.58175 0.0482887 1.69765 -7.18515e-07 1.83286 -7.06695e-07C1.96807 -6.94874e-07 2.09362 0.0482887 2.20952 0.144868L9.74266 7.70699C9.85856 7.80357 9.9165 7.91946 9.9165 8.05467C9.9165 8.18988 9.85856 8.31543 9.74266 8.43133L2.20952 15.9645C2.11294 16.0804 1.98738 16.1383 1.83286 16.1383C1.67833 16.1383 1.56244 16.0804 1.48517 15.9645L0.673913 15.1532C0.558018 15.0566 0.500071 14.9311 0.500071 14.7766Z" fill="#00BEFF"/>
</svg>
