<svg width="33" height="24" viewBox="0 0 33 24" fill="none" xmlns="http://www.w3.org/2000/svg">
<g clip-path="url(#clip0_2_22)">
<path d="M32.4339 13.3385C32.5079 14.6657 32.2885 15.9929 31.7913 17.2256C31.294 18.4584 30.5312 19.5663 29.557 20.4707C25.8357 23.675 19.9263 23.0551 19.6857 23.0202H8.0046C5.67976 23.0371 1.33752 21.9491 1.33752 17.7486C1.33752 13.5481 5.67876 12.477 8.0046 12.477L19.7835 12.477C20.012 12.477 20.2311 12.5678 20.3927 12.7294C20.5542 12.8909 20.645 13.11 20.645 13.3385C20.645 13.567 20.5542 13.7861 20.3927 13.9476C20.2311 14.1092 20.012 14.2 19.7835 14.2L8.0046 14.2C7.79797 14.2 2.9746 14.2 2.9746 17.7486C2.9746 21.2973 7.79797 21.3142 8.0046 21.3142H19.7835C19.9382 21.3142 25.2787 21.9521 28.3971 19.1781C29.1866 18.4332 29.8032 17.5243 30.2035 16.5154C30.6038 15.5064 30.778 14.422 30.714 13.3385C30.7809 12.2564 30.61 11.1728 30.2133 10.1638C29.8167 9.15476 29.2039 8.24485 28.4181 7.49795C25.2827 4.72391 19.9422 5.3448 19.8903 5.36177H2.11314C1.88466 5.36177 1.66555 5.27101 1.50399 5.10946C1.34244 4.9479 1.25168 4.72878 1.25168 4.50031C1.25603 4.2732 1.34818 4.0566 1.5088 3.89598C1.66943 3.73535 1.88602 3.6432 2.11314 3.63885H19.7885C19.9263 3.63885 25.8357 2.91515 29.557 6.20526C30.5312 7.10966 31.294 8.21765 31.7913 9.45039C32.2885 10.6831 32.5079 12.0113 32.4339 13.3385Z" fill="white"/>
<path d="M4.9291 7.81137L4.5428 8.19768C4.5042 8.23649 4.45832 8.26729 4.40778 8.28831C4.35725 8.30933 4.30306 8.32015 4.24832 8.32015C4.19359 8.32015 4.1394 8.30933 4.08886 8.28831C4.03832 8.26729 3.99244 8.23649 3.95385 8.19768L0.574894 4.82072C0.53608 4.78213 0.505279 4.73624 0.484261 4.68571C0.463243 4.63517 0.452423 4.58098 0.452423 4.52625C0.452423 4.47151 0.463243 4.41732 0.484261 4.36678C0.505279 4.31625 0.53608 4.27036 0.574894 4.23177L3.94986 0.852817C3.98845 0.814004 4.03433 0.783203 4.08487 0.762185C4.1354 0.741167 4.1896 0.730347 4.24433 0.730347C4.29906 0.730347 4.35326 0.741167 4.40379 0.762185C4.45433 0.783203 4.50021 0.814004 4.5388 0.852817L4.92511 1.23913C4.96475 1.27849 4.99608 1.3254 5.01724 1.3771C5.03841 1.42879 5.04898 1.48421 5.04833 1.54007C5.04768 1.59592 5.03582 1.65108 5.01345 1.70227C4.99109 1.75345 4.95867 1.79963 4.91812 1.83805L2.82187 3.83448H7.81295C7.86836 3.83275 7.92356 3.84211 7.9753 3.862C8.02705 3.88189 8.0743 3.91192 8.11428 3.95032C8.15427 3.98873 8.18617 4.03473 8.20814 4.08563C8.2301 4.13653 8.24167 4.19131 8.24218 4.24675V4.80275C8.24231 4.85758 8.23161 4.9119 8.21068 4.96258C8.18976 5.01327 8.15903 5.05932 8.12026 5.09809C8.08149 5.13686 8.03544 5.16759 7.98476 5.18851C7.93407 5.20943 7.87976 5.22014 7.82492 5.22H2.83385L4.9301 7.21643C4.96988 7.25512 5.00149 7.3014 5.02304 7.35254C5.04459 7.40368 5.05564 7.45862 5.05555 7.51411C5.05546 7.5696 5.04422 7.62451 5.0225 7.67557C5.00077 7.72664 4.96902 7.77282 4.9291 7.81137Z" fill="white"/>
</g>
<defs>
<clipPath id="clip0_2_22">
<rect width="31.9958" height="22.36" fill="white" transform="translate(0.452118 0.72998)"/>
</clipPath>
</defs>
</svg>
