<svg width="26" height="26" viewBox="0 0 26 26" fill="none" xmlns="http://www.w3.org/2000/svg">
<g clip-path="url(#clip0_2_13)">
<path d="M12.9851 19.4336C10.8419 19.4336 8.78647 18.5822 7.27098 17.0667C5.75549 15.5512 4.90409 13.4958 4.90409 11.3526V1.58394C4.8887 1.27745 4.8887 0.970379 4.90409 0.66389C4.93402 0.467814 5.03859 0.290899 5.19594 0.170145C5.35329 0.0493911 5.55124 -0.00585215 5.74838 0.0159698C5.84772 0.0270655 5.94386 0.0578118 6.03119 0.106419C6.11853 0.155027 6.19533 0.220526 6.25712 0.299099C6.3189 0.377672 6.36443 0.46775 6.39106 0.56409C6.4177 0.66043 6.4249 0.761107 6.41225 0.860258C6.39634 1.10122 6.39634 1.34297 6.41225 1.58394V11.3526C6.41225 13.0961 7.10485 14.7682 8.3377 16.001C9.57054 17.2338 11.2426 17.9264 12.9861 17.9264C14.7296 17.9264 16.4017 17.2338 17.6346 16.001C18.8674 14.7682 19.56 13.0961 19.56 11.3526V1.58394C19.5761 1.34298 19.5761 1.10122 19.56 0.860258C19.5336 0.660264 19.5877 0.457959 19.7104 0.297848C19.8331 0.137737 20.0144 0.0329383 20.2144 0.0065016C20.4144 -0.0199351 20.6167 0.0341588 20.7768 0.156882C20.9369 0.279606 21.0417 0.460904 21.0682 0.660898C21.0837 0.967383 21.0837 1.27446 21.0682 1.58094V11.3496C21.0682 13.4928 20.2168 15.5482 18.7013 17.0637C17.1858 18.5792 15.1304 19.4306 12.9871 19.4306L12.9851 19.4336Z" fill="white"/>
<path d="M19.6079 10.9588C19.4942 10.9534 19.3842 10.9168 19.2899 10.8532L18.6529 10.3707C18.5088 10.2555 18.4114 10.0919 18.3788 9.9102C18.3395 9.71963 18.3626 9.52146 18.4446 9.34502C18.484 9.26233 18.5388 9.18791 18.6061 9.12572C18.6683 9.06821 18.7425 9.0253 18.8234 9.00013C18.9012 8.97625 18.9837 8.97181 19.0636 8.98717C19.1453 9.00274 19.2224 9.03684 19.2889 9.08685L19.7783 9.44869C23.4525 9.28322 24.1383 4.00617 24.2639 2.00061H1.77814C1.90075 4.00617 2.58654 9.28322 6.26373 9.44869L6.75316 9.08685C6.81966 9.03687 6.89672 9.00277 6.97844 8.98717C7.05837 8.97181 7.14085 8.97625 7.21867 9.00013C7.29954 9.0253 7.37378 9.06821 7.43597 9.12572C7.50322 9.18791 7.55802 9.26233 7.59745 9.34502C7.67943 9.52148 7.70249 9.71963 7.66324 9.9102C7.63059 10.0918 7.5332 10.2554 7.38912 10.3707L6.75216 10.8532C6.65785 10.9169 6.54785 10.9534 6.43418 10.9588C1.76817 10.9588 0.532142 4.59627 0.532142 1.24902C0.529696 1.05605 0.59297 0.867984 0.711566 0.715735C0.762484 0.648789 0.827794 0.594144 0.902675 0.555841C0.977557 0.517537 1.06009 0.496555 1.14417 0.494446H24.8979C24.982 0.496555 25.0645 0.517537 25.1394 0.555841C25.2143 0.594144 25.2796 0.648789 25.3305 0.715735C25.4491 0.867984 25.5124 1.05605 25.5099 1.24902C25.5109 4.59527 24.2739 10.9588 19.6079 10.9588Z" fill="white"/>
<path d="M12.9941 25.8401C12.7942 25.8401 12.6026 25.7607 12.4612 25.6193C12.3199 25.478 12.2405 25.2863 12.2405 25.0865V16.9446C12.2405 16.7446 12.32 16.5528 12.4614 16.4114C12.6028 16.27 12.7946 16.1906 12.9946 16.1906C13.1946 16.1906 13.3864 16.27 13.5278 16.4114C13.6692 16.5528 13.7487 16.7446 13.7487 16.9446V25.0865C13.7487 25.2863 13.6693 25.478 13.5279 25.6193C13.3866 25.7607 13.194 25.8401 12.9941 25.8401Z" fill="white"/>
<path d="M21.0074 25.5968H6.35442C6.15443 25.5968 5.96262 25.5173 5.82121 25.3759C5.67979 25.2345 5.60034 25.0427 5.60034 24.8427C5.60034 24.6427 5.67979 24.4509 5.82121 24.3095C5.96262 24.1681 6.15443 24.0886 6.35442 24.0886H21.0074C21.2073 24.0886 21.3991 24.1681 21.5406 24.3095C21.682 24.4509 21.7614 24.6427 21.7614 24.8427C21.7614 25.0427 21.682 25.2345 21.5406 25.3759C21.3991 25.5173 21.2073 25.5968 21.0074 25.5968Z" fill="white"/>
</g>
<defs>
<clipPath id="clip0_2_13">
<rect width="24.9818" height="25.84" fill="white" transform="translate(0.529144)"/>
</clipPath>
</defs>
</svg>
