<svg width="34" height="34" viewBox="0 0 34 34" fill="none" xmlns="http://www.w3.org/2000/svg">
<g clip-path="url(#clip0_2_38)">
<path d="M15.6044 32.3516C15.3685 32.1657 15.1717 31.9351 15.0253 31.673C14.8789 31.4108 14.7857 31.1223 14.7512 30.8241L13.6813 22.0904C13.6494 21.8387 13.5193 21.6097 13.3194 21.4534C13.1194 21.2971 12.8658 21.2261 12.6138 21.256L3.93469 22.3C3.41079 22.3606 2.88198 22.2393 2.43686 21.9564C1.99175 21.6735 1.65737 21.2463 1.48975 20.7462C1.32214 20.2462 1.33148 19.7037 1.5162 19.2097C1.70092 18.7158 2.0498 18.3003 2.50439 18.0329L22.2744 6.56315C22.6702 6.33236 23.1263 6.2256 23.5835 6.25667C24.0407 6.28773 24.478 6.4552 24.8391 6.73743C25.2001 7.01966 25.4682 7.40367 25.6087 7.83985C25.7492 8.27603 25.7557 8.74433 25.6273 9.18423L19.2352 31.1816C19.1269 31.541 18.933 31.8687 18.67 32.1365C18.4071 32.4044 18.0831 32.6044 17.7258 32.7194C17.3685 32.8344 16.9886 32.8608 16.6188 32.7966C16.249 32.7323 15.9003 32.5791 15.6028 32.3503L15.6044 32.3516ZM24.0007 7.80988C23.8558 7.69137 23.6779 7.62054 23.4912 7.60707C23.3045 7.59359 23.1182 7.63814 22.9578 7.73461L3.15541 19.2475C2.96219 19.3508 2.81284 19.5204 2.73489 19.7252C2.65694 19.9299 2.65565 20.156 2.73126 20.3616C2.7928 20.5711 2.92888 20.7508 3.11383 20.8669C3.29878 20.9829 3.51982 21.0273 3.73522 20.9916L12.4688 19.9216C12.7687 19.8849 13.0728 19.9075 13.3638 19.9883C13.6549 20.0691 13.9272 20.2065 14.1652 20.3925C14.4032 20.5785 14.6022 20.8096 14.7508 21.0726C14.8995 21.3355 14.9949 21.6252 15.0316 21.925L16.1015 30.6586C16.1189 30.8763 16.2153 31.0801 16.3725 31.2315C16.5298 31.383 16.7371 31.4717 16.9552 31.4808C17.173 31.5046 17.3921 31.4488 17.5719 31.3237C17.7518 31.1986 17.8804 31.0127 17.934 30.8003L24.3255 8.80373C24.3803 8.62496 24.3786 8.43362 24.3207 8.25585C24.2627 8.07807 24.1504 7.92192 24.0007 7.80988Z" fill="white"/>
</g>
<defs>
<clipPath id="clip0_2_38">
<rect width="32.9332" height="33.67" fill="white" transform="translate(0.413422 0.0899658)"/>
</clipPath>
</defs>
</svg>
