<svg width="25" height="32" viewBox="0 0 25 32" fill="none" xmlns="http://www.w3.org/2000/svg">
<g clip-path="url(#clip0_2_202)">
<path d="M23.4538 7.67162C23.1817 7.31947 22.8456 7.05135 22.4454 6.86727C22.0452 6.68319 21.613 6.59115 21.1488 6.59115H4.98993L4.94191 6.231C4.86187 5.47868 4.53373 4.85041 3.95749 4.3462C3.38124 3.84198 2.71696 3.58987 1.96464 3.58987H1.74854C1.47643 3.58987 1.24033 3.68991 1.04024 3.89C0.840155 4.09009 0.740112 4.32619 0.740112 4.5983C0.740112 4.87042 0.840155 5.10252 1.04024 5.2946C1.24033 5.48668 1.47643 5.58272 1.74854 5.58272H1.96464C2.22074 5.58272 2.44484 5.66676 2.63692 5.83483C2.829 6.0029 2.93305 6.21499 2.94906 6.4711L4.34165 18.1881C4.43769 19.0205 4.71781 19.7728 5.18201 20.4451C5.64621 21.1174 6.24246 21.6456 6.97077 22.0297C7.69908 22.4139 8.47942 22.606 9.31177 22.606H19.7562C20.0284 22.606 20.2605 22.506 20.4525 22.3059C20.6446 22.1058 20.7407 21.8697 20.7407 21.5976C20.7407 21.3254 20.6446 21.0893 20.4525 20.8893C20.2605 20.6892 20.0284 20.5891 19.7562 20.5891H9.31177C8.6715 20.5891 8.09125 20.4051 7.57103 20.0369C7.05081 19.6687 6.68665 19.1885 6.47856 18.5963H18.4117C19.212 18.5963 19.9603 18.4202 20.6566 18.0681C21.3529 17.7159 21.9372 17.2277 22.4094 16.6034C22.8816 15.9792 23.1897 15.2749 23.3338 14.4905L24.1261 10.1207C24.2061 9.68848 24.1861 9.25629 24.0661 8.82411C23.946 8.39192 23.7419 8.00776 23.4538 7.67162ZM22.1573 9.76051L21.3649 14.1304C21.2369 14.8347 20.8927 15.4229 20.3325 15.8951C19.7722 16.3673 19.132 16.6034 18.4117 16.6034H6.16643L5.23003 8.58401H21.1488C21.469 8.58401 21.7291 8.70406 21.9292 8.94416C22.1292 9.18426 22.2053 9.45638 22.1573 9.76051ZM5.73425 25.6073C5.73425 25.047 5.93433 24.5708 6.3345 24.1787C6.73467 23.7865 7.20687 23.5904 7.75111 23.5904C8.29534 23.5904 8.76354 23.7865 9.15571 24.1787C9.54787 24.5708 9.74396 25.043 9.74396 25.5953C9.74396 26.1475 9.55188 26.6197 9.16771 27.0119C8.78355 27.404 8.31135 27.6001 7.75111 27.6001C7.19087 27.6001 6.71466 27.404 6.3225 27.0119C5.93033 26.6197 5.73425 26.1515 5.73425 25.6073ZM15.7465 25.6073C15.7465 25.047 15.9426 24.5708 16.3348 24.1787C16.7269 23.7865 17.1991 23.5904 17.7514 23.5904C18.3036 23.5904 18.7758 23.7865 19.168 24.1787C19.5602 24.5708 19.7562 25.043 19.7562 25.5953C19.7562 26.1475 19.5602 26.6197 19.168 27.0119C18.7758 27.404 18.3036 27.6001 17.7514 27.6001C17.1991 27.6001 16.7269 27.404 16.3348 27.0119C15.9426 26.6197 15.7465 26.1515 15.7465 25.6073Z" fill="black"/>
</g>
<defs>
<clipPath id="clip0_2_202">
<rect width="23.41" height="31.19" fill="white" transform="matrix(1 0 0 -1 0.740112 31.19)"/>
</clipPath>
</defs>
</svg>
