<svg width="24" height="23" viewBox="0 0 24 23" fill="none" xmlns="http://www.w3.org/2000/svg">
<path d="M18.9655 20.4683L2.44925 5.50169C1.74762 4.8659 1.69425 3.78156 2.33004 3.07993C2.96584 2.37831 4.05018 2.32493 4.75181 2.96073L21.2681 17.9274C21.9697 18.5632 22.0231 19.6475 21.3873 20.3491C20.7515 21.0507 19.6672 21.1041 18.9655 20.4683Z" fill="black"/>
<path d="M2.51888 18.0314L18.8681 2.8824C19.5626 2.23886 20.6474 2.28019 21.291 2.97472C21.9345 3.66924 21.8932 4.75411 21.1987 5.39765L4.8495 20.5467C4.15497 21.1902 3.07011 21.1489 2.42656 20.4543C1.78302 19.7598 1.82436 18.6749 2.51888 18.0314Z" fill="black"/>
</svg>
