<svg width="24" height="24" viewBox="0 0 24 24" fill="none" xmlns="http://www.w3.org/2000/svg">
<path d="M23.1393 12.3939C23.1393 10.3698 22.6486 8.4836 21.6672 6.73545C20.7011 5.0333 19.3976 3.66085 17.7568 2.6181C16.0547 1.54467 14.1954 0.954285 12.1789 0.846943C10.1623 0.739599 8.24935 1.13063 6.43986 2.02004C4.69171 2.89412 3.25025 4.12856 2.11549 5.72336C0.965386 7.36417 0.282994 9.189 0.0683089 11.1978C-0.146376 13.2067 0.144982 15.1312 0.942384 16.9713C1.70912 18.7655 2.85922 20.2683 4.39268 21.4797C5.97215 22.7218 7.75864 23.5039 9.75215 23.8259V15.7292H6.83089V12.3939H9.75215V9.84072C9.75215 8.4146 10.1432 7.30667 10.9252 6.51693C11.7073 5.7272 12.7731 5.33233 14.1225 5.33233C14.9966 5.34766 15.863 5.42434 16.7217 5.56235V8.4146H15.2726C15.0273 8.38393 14.7819 8.40693 14.5366 8.4836C14.2912 8.56028 14.0765 8.68679 13.8925 8.86314C13.7085 9.03948 13.5743 9.2465 13.49 9.48419C13.4056 9.72188 13.3711 9.97106 13.3865 10.2318V12.3939H16.5837L16.0777 15.7292H13.3865V23.8259C15.242 23.5346 16.9211 22.8368 18.4239 21.7327C19.8807 20.6593 21.0231 19.3099 21.8512 17.6844C22.7099 16.0283 23.1393 14.2648 23.1393 12.3939Z" fill="white"/>
</svg>
