<svg width="26" height="32" viewBox="0 0 26 32" fill="none" xmlns="http://www.w3.org/2000/svg">
<g clip-path="url(#clip0_2_241)">
<path d="M18.7746 4.09406C17.5425 4.11007 16.3984 4.43409 15.3423 5.06614C14.2863 5.69819 13.4622 6.55026 12.8701 7.62234C12.2781 6.55026 11.458 5.69819 10.41 5.06614C9.36187 4.43409 8.22178 4.11007 6.98969 4.09406C5.67758 4.14207 4.46949 4.5261 3.3654 5.24615C2.29332 5.93421 1.46126 6.83828 0.86921 7.95837C0.245162 9.11046 -0.0428605 10.3426 0.00514326 11.6547C0.00514326 13.2708 0.589189 15.0469 1.75728 16.9831C2.68535 18.5672 3.98945 20.2233 5.66958 21.9515C6.90168 23.2316 8.27779 24.4957 9.7979 25.7437C10.582 26.3998 11.374 27.0238 12.1741 27.6159L12.8701 28.0959L13.4942 27.6639C14.1182 27.2159 14.8303 26.6718 15.6304 26.0318C17.1505 24.7837 18.5426 23.5196 19.8067 22.2395C21.5348 20.4793 22.8949 18.7912 23.887 17.1751C25.1191 15.1589 25.7351 13.3188 25.7351 11.6547C25.7831 10.3426 25.5031 9.11046 24.8951 7.95837C24.287 6.83828 23.455 5.93421 22.3989 5.24615C21.2948 4.5421 20.0867 4.15807 18.7746 4.09406ZM12.8701 25.4557C11.398 24.3516 9.95792 23.1275 8.54981 21.7834C6.70966 20.0233 5.24555 18.3592 4.15747 16.7911C2.82936 14.8389 2.16531 13.1268 2.16531 11.6547C2.11731 10.7266 2.29732 9.85851 2.70535 9.05045C3.11338 8.24239 3.69743 7.58234 4.45749 7.0703C5.21755 6.55826 6.06161 6.27823 6.98969 6.23023C7.91776 6.27823 8.76182 6.55826 9.52188 7.0703C10.2819 7.58234 10.866 8.24239 11.274 9.05045C11.6821 9.85851 11.8621 10.7266 11.8141 11.6547H13.9502C13.9022 10.7266 14.0822 9.85851 14.4903 9.05045C14.8983 8.24239 15.4823 7.58234 16.2424 7.0703C17.0025 6.55826 17.8465 6.27823 18.7746 6.23023C19.7027 6.27823 20.5467 6.55826 21.3068 7.0703C22.0669 7.58234 22.6509 8.24239 23.0589 9.05045C23.467 9.85851 23.647 10.7266 23.599 11.6547C23.599 13.1268 22.9269 14.8389 21.5828 16.7911C20.5107 18.3592 19.0466 20.0233 17.1905 21.7834C15.7824 23.1275 14.3423 24.3516 12.8701 25.4557Z" fill="black"/>
</g>
<defs>
<clipPath id="clip0_2_241">
<rect width="25.73" height="31.19" fill="white" transform="matrix(1 0 0 -1 0 31.69)"/>
</clipPath>
</defs>
</svg>
