<svg width="24" height="31" viewBox="0 0 24 31" fill="none" xmlns="http://www.w3.org/2000/svg">
<g clip-path="url(#clip0_2_275)">
<path d="M11.64 9.43695C10.582 9.43695 9.60068 9.70145 8.69601 10.2305C7.79135 10.7595 7.07835 11.4763 6.55701 12.381C6.03568 13.2856 5.77501 14.2708 5.77501 15.3365C5.77501 16.4021 6.03951 17.3835 6.56851 18.2805C7.09751 19.1775 7.81435 19.8905 8.71902 20.4195C9.62368 20.9485 10.6088 21.213 11.6745 21.213C12.7402 21.213 13.7215 20.9485 14.6185 20.4195C15.5155 19.8905 16.2285 19.1736 16.7575 18.269C17.2865 17.3643 17.551 16.383 17.551 15.325C17.551 14.543 17.4015 13.7916 17.1025 13.071C16.8035 12.3503 16.3742 11.714 15.8145 11.162C15.2548 10.61 14.6147 10.1845 13.894 9.88545C13.1733 9.58645 12.422 9.43695 11.64 9.43695ZM11.64 19.166C10.95 19.166 10.3098 18.9935 9.71951 18.6485C9.12918 18.3035 8.66151 17.8358 8.31651 17.2455C7.97151 16.6551 7.79901 16.015 7.79901 15.325C7.79901 14.635 7.97151 13.9948 8.31651 13.4045C8.66151 12.8141 9.12918 12.3465 9.71951 12.0015C10.3098 11.6565 10.95 11.484 11.64 11.484C12.33 11.484 12.9702 11.6565 13.5605 12.0015C14.1508 12.3465 14.6185 12.8141 14.9635 13.4045C15.3085 13.9948 15.481 14.635 15.481 15.325C15.481 16.015 15.3085 16.6551 14.9635 17.2455C14.6185 17.8358 14.1508 18.3035 13.5605 18.6485C12.9702 18.9935 12.33 19.166 11.64 19.166ZM19.161 9.18395C19.161 9.56728 19.0268 9.89312 18.7585 10.1615C18.4902 10.4298 18.1643 10.564 17.781 10.564C17.3977 10.564 17.0718 10.4298 16.8035 10.1615C16.5352 9.89312 16.401 9.56728 16.401 9.18395C16.401 8.80062 16.5352 8.47478 16.8035 8.20645C17.0718 7.93812 17.3977 7.80395 17.781 7.80395C18.1643 7.80395 18.4902 7.93812 18.7585 8.20645C19.0268 8.47478 19.161 8.80062 19.161 9.18395ZM23.071 10.587C23.0863 9.69762 22.933 8.83128 22.611 7.98795C22.289 7.14462 21.8213 6.40095 21.208 5.75695C20.5487 5.14362 19.8012 4.67595 18.9655 4.35395C18.1298 4.03195 17.2673 3.87862 16.378 3.89395C15.4273 3.84795 13.8442 3.82495 11.6285 3.82495C9.41285 3.82495 7.83735 3.84795 6.90201 3.89395C6.01268 3.87862 5.14635 4.03195 4.30301 4.35395C3.45968 4.67595 2.71601 5.14362 2.07201 5.75695C1.45868 6.40095 0.994848 7.14079 0.680515 7.97645C0.366181 8.81212 0.216681 9.67462 0.232015 10.564C0.170681 11.5146 0.140015 13.0978 0.140015 15.3135C0.140015 17.5291 0.170681 19.1123 0.232015 20.063C0.216681 20.9523 0.366181 21.8148 0.680515 22.6505C0.994848 23.4861 1.45868 24.2336 2.07201 24.893C2.73135 25.5063 3.47885 25.9701 4.31451 26.2845C5.15018 26.5988 6.01268 26.7483 6.90201 26.733C7.83735 26.7943 9.41668 26.825 11.64 26.825C13.8633 26.825 15.4427 26.7943 16.378 26.733C17.2673 26.7483 18.1298 26.5988 18.9655 26.2845C19.8012 25.9701 20.5487 25.5063 21.208 24.893C21.8213 24.2336 22.289 23.4861 22.611 22.6505C22.933 21.8148 23.0863 20.9523 23.071 20.063C23.117 19.1276 23.14 17.5521 23.14 15.3365C23.14 13.1208 23.117 11.5376 23.071 10.587ZM20.61 22.11C20.4107 22.616 20.1232 23.0568 19.7475 23.4325C19.3718 23.8081 18.931 24.0956 18.425 24.295C17.8577 24.525 16.93 24.6706 15.642 24.732C14.906 24.7626 13.848 24.7703 12.468 24.755H10.812C9.43201 24.7703 8.37401 24.7626 7.63801 24.732C6.35001 24.6706 5.42235 24.525 4.85501 24.295C4.34901 24.0956 3.90818 23.8081 3.53251 23.4325C3.15685 23.0568 2.86935 22.616 2.67001 22.11C2.44001 21.5426 2.29435 20.615 2.23301 19.327C2.20235 18.591 2.19468 17.533 2.21001 16.153V14.589C2.19468 13.1936 2.21001 12.1203 2.25601 11.369C2.31735 10.0656 2.45535 9.12262 2.67001 8.53995C2.86935 8.03395 3.15685 7.59312 3.53251 7.21745C3.90818 6.84178 4.34901 6.55429 4.85501 6.35495C5.42235 6.12495 6.35001 5.97928 7.63801 5.91795C8.37401 5.88729 9.43968 5.87962 10.835 5.89495H12.445C13.8403 5.87962 14.906 5.88729 15.642 5.91795C16.93 5.97928 17.8577 6.12495 18.425 6.35495C18.931 6.55429 19.3718 6.84178 19.7475 7.21745C20.1232 7.59312 20.4107 8.03395 20.61 8.53995C20.84 9.10728 20.9857 10.035 21.047 11.323C21.0777 12.059 21.0853 13.117 21.07 14.497V16.153C21.0853 17.533 21.0777 18.591 21.047 19.327C20.9857 20.615 20.84 21.5426 20.61 22.11Z" fill="white"/>
</g>
<defs>
<clipPath id="clip0_2_275">
<rect width="23" height="29.89" fill="white" transform="matrix(1 0 0 -1 0.140015 30.27)"/>
</clipPath>
</defs>
</svg>
