<svg width="21" height="22" viewBox="0 0 21 22" fill="none" xmlns="http://www.w3.org/2000/svg">
<g clip-path="url(#clip0_5_1435)">
<path d="M20.1353 18.9002L16.2953 15.0986C17.2287 13.9106 17.8087 12.5708 18.0353 11.0792C18.2486 9.64039 18.1153 8.22799 17.6353 6.84199C17.1287 5.42959 16.302 4.22509 15.1553 3.22849C14.0087 2.23189 12.6953 1.56859 11.2153 1.23859C9.77532 0.921795 8.34865 0.961393 6.93532 1.35739C5.46865 1.76659 4.19532 2.49919 3.11532 3.55519C2.03532 4.61119 1.28198 5.85859 0.855317 7.29739C0.441984 8.70979 0.381984 10.1288 0.675317 11.5544C0.981984 13.0196 1.63532 14.3231 2.63532 15.4649C3.63532 16.6067 4.84865 17.4416 6.27532 17.9696C7.64865 18.4712 9.06865 18.6164 10.5353 18.4052C12.042 18.2072 13.402 17.6528 14.6153 16.742L18.4753 20.5634C18.702 20.7878 18.9787 20.9 19.3053 20.9C19.632 20.9 19.912 20.7845 20.1453 20.5535C20.3787 20.3225 20.492 20.0453 20.4853 19.7219C20.4787 19.3985 20.362 19.1246 20.1353 18.9002ZM4.75532 14.3264C4.03532 13.6136 3.51865 12.7919 3.20532 11.8613C2.89198 10.9307 2.79532 9.97369 2.91532 8.99029C3.03532 8.00689 3.37865 7.09939 3.94532 6.26779C4.51198 5.43619 5.22532 4.77619 6.08532 4.28779C6.94532 3.79939 7.87198 3.51889 8.86532 3.44629C9.85865 3.37369 10.8253 3.53209 11.7653 3.92149C12.7053 4.31089 13.502 4.87519 14.1553 5.61439C14.8087 6.35359 15.2653 7.20169 15.5253 8.15869C15.7853 9.11569 15.8153 10.0826 15.6153 11.0594C15.4153 12.0362 15.012 12.9173 14.4053 13.7027C13.7987 14.4881 13.0487 15.0986 12.1553 15.5342C11.262 15.9698 10.3087 16.1876 9.29532 16.1876C8.44198 16.1876 7.62198 16.0259 6.83532 15.7025C6.04865 15.3791 5.35532 14.9204 4.75532 14.3264Z" fill="black"/>
</g>
<defs>
<clipPath id="clip0_5_1435">
<rect width="20" height="22" fill="white" transform="matrix(1 0 0 -1 0.5 22)"/>
</clipPath>
</defs>
</svg>
