<svg width="15" height="15" viewBox="0 0 15 15" fill="none" xmlns="http://www.w3.org/2000/svg">
<path fill-rule="evenodd" clip-rule="evenodd" d="M7.5 0.5C3.63385 0.5 0.5 3.63385 0.5 7.5C0.5 11.3662 3.63385 14.5 7.5 14.5C11.3662 14.5 14.5 11.3662 14.5 7.5C14.5 3.63385 11.3662 0.5 7.5 0.5ZM2.16923 10.0846C2.75814 11.2999 3.74467 12.2775 4.9653 12.8553C6.18593 13.4331 7.56736 13.5764 8.88062 13.2615C8.77968 12.9927 8.59915 12.761 8.36311 12.5975C8.12707 12.4339 7.84676 12.3462 7.55959 12.3462C7.39242 12.3462 7.23066 12.2869 7.10313 12.1788C6.97559 12.0708 6.89056 11.9209 6.86318 11.756L6.81077 11.4423C6.74328 11.0366 6.99026 10.6453 7.38513 10.5326L8.0959 10.3302C8.40246 10.2418 8.65805 10.0301 8.80092 9.74431L8.82677 9.6919C8.9007 9.54396 9.00875 9.41572 9.142 9.31776C9.27525 9.2198 9.42988 9.15493 9.59314 9.12849C9.7564 9.10205 9.9236 9.11481 10.081 9.16571C10.2383 9.21661 10.3813 9.30419 10.4982 9.42123L10.7308 9.65385H11.1816C11.4738 9.65378 11.7604 9.73294 12.0111 9.88288C12.2618 10.0328 12.4672 10.2479 12.6053 10.5053C13.1114 9.64581 13.3921 8.67243 13.4216 7.67545C13.4511 6.67847 13.2283 5.69019 12.774 4.80227C12.3196 3.91435 11.6484 3.15554 10.8226 2.59622C9.99677 2.0369 9.04307 1.69519 8.04995 1.60277C8.08154 1.79087 8.17918 1.9639 8.32923 2.0881L9.096 2.72708C9.41333 2.992 9.4801 3.45221 9.25108 3.79682L8.88492 4.34677C8.68553 4.64559 8.39223 4.86942 8.05138 4.98287L7.94872 5.01733C7.83287 5.05607 7.72751 5.12098 7.64082 5.20704C7.55413 5.29309 7.48844 5.39797 7.44886 5.51353C7.40927 5.62909 7.39686 5.75222 7.41258 5.87335C7.42829 5.99449 7.47172 6.11037 7.53949 6.212C7.60196 6.30586 7.64377 6.41194 7.66213 6.52318C7.6805 6.63443 7.675 6.74831 7.64601 6.85727C7.61702 6.96624 7.5652 7.06779 7.49399 7.15521C7.42277 7.24262 7.33378 7.3139 7.23292 7.36431L5.34615 8.30769L5.64985 9.068C5.7111 9.22242 5.71426 9.39382 5.65875 9.55039C5.60324 9.70697 5.49283 9.8381 5.34799 9.91946C5.20315 10.0008 5.03372 10.0269 4.87113 9.99284C4.70853 9.95878 4.56381 9.8669 4.46379 9.73426L3.97631 9.0838C3.89369 8.9737 3.7843 8.88654 3.65853 8.83059C3.53276 8.77465 3.39478 8.75178 3.25769 8.76415C3.12059 8.77652 2.98893 8.82373 2.87521 8.90128C2.76149 8.97884 2.66947 9.08417 2.6079 9.20728L2.16923 10.0846Z" fill="black"/>
</svg>
