<svg width="20" height="26" viewBox="0 0 20 26" fill="none" xmlns="http://www.w3.org/2000/svg">
<path d="M17.219 15.4C16.8857 15.08 16.5057 14.8667 16.079 14.76C15.6524 14.6533 15.2224 14.6533 14.789 14.76C14.3557 14.8667 13.9724 15.08 13.639 15.4L12.039 16.74C10.7324 16.1933 9.57902 15.42 8.57902 14.42C7.57902 13.42 6.80569 12.2667 6.25902 10.96L7.59902 9.35999C7.90569 9.02666 8.11236 8.64666 8.21902 8.21999C8.32569 7.79332 8.32569 7.36665 8.21902 6.93999C8.11236 6.51332 7.90569 6.13332 7.59902 5.79999L6.81902 4.77999C6.29902 4.11332 6.03236 3.77332 6.01902 3.75999C5.69902 3.43999 5.31902 3.21999 4.87902 3.09999C4.43902 2.97999 4.00236 2.97332 3.56902 3.07999C3.13569 3.18666 2.75236 3.39999 2.41902 3.71999L1.45902 4.55999C0.685691 5.38665 0.219024 6.37332 0.0590244 7.51999C-0.0876423 8.58665 0.0390244 9.75332 0.439024 11.02C0.812358 12.2067 1.40569 13.42 2.21902 14.66C2.99236 15.8467 3.91569 16.9767 4.98902 18.05C6.06236 19.1233 7.19902 20.0467 8.39902 20.82C9.62569 21.62 10.8324 22.2067 12.019 22.58C13.2857 22.9667 14.4524 23.0867 15.519 22.94C16.6657 22.7667 17.6524 22.2867 18.479 21.5L19.239 20.62C19.5724 20.2867 19.7957 19.9 19.909 19.46C20.0224 19.02 20.0224 18.58 19.909 18.14C19.7957 17.7 19.5724 17.3133 19.239 16.98C19.2257 16.9667 18.8857 16.7 18.219 16.18L17.219 15.4Z" fill="white"/>
</svg>
