<svg width="71" height="37" viewBox="0 0 71 37" fill="none" xmlns="http://www.w3.org/2000/svg">
<g clip-path="url(#clip0_2_320)">
<path d="M67 0.5H4C1.79086 0.5 0 2.29086 0 4.5V32.5C0 34.7091 1.79086 36.5 4 36.5H67C69.2091 36.5 71 34.7091 71 32.5V4.5C71 2.29086 69.2091 0.5 67 0.5Z" fill="white"/>
<path d="M8 29.316H10.248V16.94H8V29.316ZM32.681 27.834C33.2465 28.3829 33.9148 28.8148 34.6475 29.1049C35.3802 29.3951 36.163 29.5379 36.951 29.525C39.531 29.525 41.03 27.869 41.03 25.9C41.03 21.943 35.208 22.484 35.208 20.288C35.208 19.416 36.027 18.806 37.073 18.806C38.0804 18.8508 39.0439 19.2313 39.81 19.887L40.786 18.057C39.7701 17.154 38.4442 16.6791 37.086 16.732C34.716 16.732 32.938 18.266 32.938 20.323C32.938 24.123 38.777 23.739 38.777 25.953C38.777 26.964 37.923 27.453 36.977 27.453C35.8281 27.3886 34.7375 26.9265 33.892 26.146L32.681 27.834ZM41.867 24.871C41.8529 25.4964 41.9678 26.1179 42.2045 26.6969C42.4412 27.2759 42.7945 27.7999 43.2426 28.2364C43.6907 28.6728 44.2239 29.0123 44.8089 29.2337C45.3939 29.455 46.0182 29.5535 46.643 29.523C47.9464 29.5314 49.2111 29.0811 50.216 28.251L49.36 26.666C48.632 27.2564 47.7343 27.5984 46.798 27.642C46.1332 27.6799 45.4803 27.4541 44.981 27.0135C44.4817 26.573 44.1763 25.9533 44.131 25.289H50.266C50.266 25.289 50.318 24.696 50.318 24.435C50.318 22.082 48.941 20.217 46.379 20.217C45.7696 20.1996 45.1632 20.3091 44.5984 20.5387C44.0336 20.7683 43.5228 21.113 43.0984 21.5507C42.674 21.9884 42.3454 22.5097 42.1334 23.0813C41.9214 23.6529 41.8307 24.2624 41.867 24.871ZM44.203 23.771C44.2588 23.2515 44.5089 22.7724 44.9032 22.4296C45.2975 22.0869 45.8068 21.9059 46.329 21.923C46.5696 21.9161 46.8089 21.9599 47.0314 22.0515C47.254 22.1432 47.4548 22.2806 47.6208 22.4549C47.7867 22.6291 47.9142 22.8364 47.9949 23.0631C48.0755 23.2899 48.1076 23.5311 48.089 23.771H44.203ZM51.593 26.542C51.593 29.087 53.109 29.401 54.33 29.401C54.5643 29.3999 54.7982 29.3826 55.03 29.349V27.414C55.03 27.414 54.873 27.431 54.699 27.431C54.124 27.431 53.793 27.187 53.793 26.211V16.938H51.593V26.542ZM56.107 26.542C56.107 29.087 57.623 29.401 58.844 29.401C59.0783 29.3999 59.3122 29.3826 59.544 29.349V27.414C59.544 27.414 59.387 27.431 59.213 27.431C58.638 27.431 58.307 27.187 58.307 26.211V16.938H56.107V26.542Z" fill="#222222"/>
<path d="M11.991 24.8709C11.991 27.6249 13.525 29.5249 15.93 29.5249C16.4886 29.5485 17.0431 29.4199 17.5343 29.1529C18.0255 28.8859 18.435 28.4905 18.719 28.0089H18.754C18.7301 28.1997 18.7184 28.3917 18.719 28.5839V29.3159H20.807V16.9399H18.597V20.8399C18.597 21.1189 18.614 21.3449 18.614 21.3449H18.579C18.2901 20.9467 17.9008 20.632 17.4508 20.433C17.0008 20.234 16.5061 20.1577 16.017 20.2119C13.664 20.2169 11.991 22.0469 11.991 24.8709ZM14.222 24.8709C14.222 23.1109 15.233 22.1169 16.453 22.1169C17.935 22.1169 18.667 23.4769 18.667 24.8539C18.667 26.8239 17.586 27.6599 16.436 27.6599C15.128 27.6599 14.222 26.5609 14.222 24.8709ZM22.153 24.8709C22.1541 25.5028 22.2835 26.1278 22.5333 26.7082C22.7831 27.2886 23.1482 27.8122 23.6063 28.2474C24.0644 28.6825 24.6062 29.0201 25.1986 29.2397C25.7911 29.4593 26.422 29.5563 27.053 29.5249C27.6826 29.5543 28.3117 29.4557 28.9021 29.2351C29.4925 29.0145 30.0321 28.6764 30.4882 28.2414C30.9443 27.8064 31.3075 27.2835 31.5559 26.7042C31.8042 26.1249 31.9325 25.5012 31.933 24.8709C31.9304 24.2395 31.7999 23.6152 31.5496 23.0356C31.2992 22.4559 30.9342 21.9329 30.4764 21.4981C30.0186 21.0633 29.4775 20.7256 28.8857 20.5054C28.2939 20.2852 27.6637 20.1871 27.033 20.2169C26.4038 20.1892 25.7754 20.2889 25.1857 20.51C24.596 20.7312 24.057 21.0693 23.6012 21.504C23.1454 21.9387 22.7822 22.461 22.5333 23.0396C22.2845 23.6182 22.1551 24.2411 22.153 24.8709ZM24.401 24.8709C24.3855 24.5131 24.4425 24.1558 24.5687 23.8206C24.6948 23.4854 24.8875 23.1791 25.135 22.9202C25.3826 22.6614 25.6799 22.4553 26.0092 22.3143C26.3385 22.1733 26.6929 22.1004 27.051 22.0999C27.4078 22.1024 27.7604 22.1768 28.0878 22.3187C28.4151 22.4606 28.7105 22.6671 28.9562 22.9258C29.202 23.1845 29.393 23.4901 29.5178 23.8243C29.6427 24.1585 29.6989 24.5145 29.683 24.8709C29.7005 25.2278 29.6454 25.5844 29.5211 25.9193C29.3967 26.2542 29.2058 26.5604 28.9598 26.8195C28.7138 27.0785 28.4178 27.2849 28.0897 27.4263C27.7616 27.5677 27.4083 27.641 27.051 27.6419C26.6924 27.6429 26.3374 27.5709 26.0075 27.4304C25.6776 27.29 25.3796 27.0839 25.1318 26.8247C24.8839 26.5656 24.6914 26.2588 24.5657 25.9229C24.4401 25.587 24.3841 25.2291 24.401 24.8709Z" fill="#1FD18E"/>
<path d="M63.321 29.485C64.5244 29.485 65.5 28.5094 65.5 27.306C65.5 26.1025 64.5244 25.127 63.321 25.127C62.1175 25.127 61.142 26.1025 61.142 27.306C61.142 28.5094 62.1175 29.485 63.321 29.485Z" fill="#1FD18E"/>
<path d="M8.005 13.4999H8.946V11.0199H10.456C10.7378 11.032 11.019 10.9851 11.2816 10.8822C11.5443 10.7792 11.7825 10.6226 11.981 10.4223C12.1796 10.2219 12.3341 9.9823 12.4346 9.71878C12.5352 9.45525 12.5796 9.17362 12.565 8.89194C12.5795 8.61158 12.5348 8.33131 12.4338 8.06936C12.3328 7.80742 12.1778 7.56967 11.9789 7.37158C11.7799 7.1735 11.5415 7.01951 11.2791 6.91964C11.0168 6.81978 10.7363 6.77626 10.456 6.79194H8.005V13.4999ZM8.946 10.1999V7.60994H10.314C10.4868 7.59379 10.6611 7.61578 10.8245 7.67435C10.9879 7.73292 11.1365 7.82665 11.2597 7.94892C11.3829 8.07118 11.4778 8.219 11.5376 8.38195C11.5975 8.54489 11.6208 8.71899 11.606 8.89194C11.6208 9.06692 11.5973 9.24303 11.5372 9.40802C11.4771 9.57302 11.3817 9.72295 11.2579 9.84741C11.134 9.97186 10.9845 10.0679 10.8198 10.1287C10.655 10.1896 10.4791 10.2139 10.304 10.1999H8.946ZM13.231 11.0829C13.229 11.4211 13.2951 11.7563 13.4255 12.0684C13.5559 12.3804 13.7478 12.663 13.9898 12.8993C14.2319 13.1355 14.519 13.3206 14.8342 13.4433C15.1493 13.5661 15.4859 13.6242 15.824 13.6139C16.1618 13.6243 16.4982 13.5665 16.8132 13.444C17.1282 13.3215 17.4153 13.1369 17.6574 12.901C17.8995 12.6652 18.0916 12.383 18.2223 12.0714C18.3529 11.7597 18.4195 11.4249 18.418 11.0869C18.4182 10.7502 18.3506 10.4169 18.2192 10.1069C18.0878 9.79685 17.8954 9.51645 17.6533 9.2824C17.4112 9.04835 17.1245 8.86545 16.8102 8.74459C16.4959 8.62373 16.1605 8.56739 15.824 8.57894C15.4875 8.56739 15.1521 8.62373 14.8378 8.74459C14.5235 8.86545 14.2368 9.04835 13.9947 9.2824C13.7526 9.51645 13.5602 9.79685 13.4288 10.1069C13.2974 10.4169 13.2298 10.7502 13.23 11.0869L13.231 11.0829ZM14.172 11.0829C14.1648 10.8612 14.2022 10.6403 14.2819 10.4333C14.3617 10.2263 14.4823 10.0375 14.6365 9.87798C14.7907 9.71848 14.9753 9.59159 15.1795 9.50483C15.3837 9.41807 15.6032 9.37322 15.825 9.37294C16.0471 9.37239 16.267 9.41667 16.4715 9.50314C16.6761 9.58961 16.8611 9.71648 17.0154 9.87615C17.1698 10.0358 17.2903 10.225 17.3698 10.4324C17.4493 10.6397 17.4861 10.861 17.478 11.0829C17.4877 11.3065 17.4521 11.5296 17.3735 11.7391C17.2948 11.9485 17.1746 12.1399 17.0201 12.3017C16.8657 12.4636 16.6801 12.5926 16.4746 12.6809C16.269 12.7693 16.0477 12.8152 15.824 12.8159C15.6009 12.8144 15.3804 12.768 15.1756 12.6796C14.9708 12.5912 14.7858 12.4625 14.6316 12.3013C14.4774 12.14 14.3572 11.9494 14.2781 11.7408C14.199 11.5322 14.1626 11.3099 14.171 11.0869L14.172 11.0829ZM20.493 13.4999H21.519L22.507 10.4119C22.583 10.1649 22.64 9.88894 22.64 9.88894H22.659C22.659 9.88894 22.716 10.1649 22.792 10.4119L23.793 13.4999H24.81L26.359 8.69294H25.393L24.383 12.0649C24.3334 12.2332 24.2953 12.4046 24.269 12.5779H24.25C24.25 12.5779 24.193 12.3119 24.117 12.0649L23.082 8.69994H22.236L21.193 12.0649C21.143 12.2337 21.1019 12.4049 21.07 12.5779H21.051C21.042 12.5779 21.004 12.3119 20.928 12.0649L19.928 8.69194H18.949L20.493 13.4999ZM26.905 11.0999C26.8956 11.4358 26.9555 11.77 27.0809 12.0817C27.2063 12.3934 27.3945 12.6759 27.6337 12.9117C27.873 13.1476 28.1583 13.3316 28.4718 13.4524C28.7853 13.5732 29.1203 13.6282 29.456 13.6139C30.1384 13.6153 30.7988 13.3727 31.318 12.9299L30.938 12.2549C30.5414 12.5998 30.0383 12.7979 29.513 12.8159C29.2985 12.8272 29.0841 12.7943 28.8828 12.7194C28.6816 12.6445 28.4978 12.5291 28.3429 12.3803C28.188 12.2316 28.0652 12.0527 27.9821 11.8547C27.8991 11.6566 27.8575 11.4437 27.86 11.2289H31.365C31.365 11.2289 31.393 10.9539 31.393 10.8289C31.4221 10.5407 31.3896 10.2495 31.2978 9.97467C31.2059 9.69988 31.0567 9.44773 30.86 9.23492C30.6634 9.02211 30.4238 8.8535 30.1571 8.74024C29.8904 8.62698 29.6027 8.57166 29.313 8.57794C28.9852 8.57058 28.6595 8.63172 28.3567 8.75745C28.0538 8.88319 27.7806 9.07075 27.5544 9.30813C27.3282 9.54551 27.1541 9.82749 27.0431 10.136C26.9322 10.4446 26.8868 10.7729 26.91 11.0999H26.905ZM27.884 10.5399C27.9209 10.1952 28.0864 9.87703 28.3476 9.64902C28.6088 9.421 28.9464 9.29991 29.293 9.30994C29.4521 9.3059 29.6102 9.33539 29.7572 9.39648C29.9041 9.45758 30.0365 9.54891 30.1458 9.66455C30.2551 9.78018 30.3389 9.91753 30.3917 10.0677C30.4444 10.2178 30.465 10.3773 30.452 10.5359L27.884 10.5399ZM32.515 13.4999H33.436V11.5329C33.4306 11.2409 33.469 10.9496 33.55 10.6689C33.6209 10.3592 33.791 10.081 34.0345 9.87687C34.2781 9.6727 34.5816 9.55369 34.899 9.53794C34.9884 9.53829 35.0775 9.54767 35.165 9.56594V8.65394C35.0866 8.64186 35.0074 8.63551 34.928 8.63494C34.5731 8.65153 34.2332 8.7827 33.9591 9.00878C33.6851 9.23486 33.4917 9.54368 33.408 9.88894H33.393C33.4056 9.76902 33.412 9.64852 33.412 9.52794V8.69194H32.519L32.515 13.4999ZM35.715 11.0999C35.7057 11.4355 35.7655 11.7694 35.8906 12.0809C36.0158 12.3924 36.2038 12.6748 36.4427 12.9106C36.6817 13.1464 36.9666 13.3305 37.2798 13.4515C37.5929 13.5725 37.9276 13.6278 38.263 13.6139C38.9454 13.6153 39.6058 13.3727 40.125 12.9299L39.745 12.2549C39.3484 12.5998 38.8453 12.7979 38.32 12.8159C38.1055 12.8272 37.8911 12.7943 37.6898 12.7194C37.4886 12.6445 37.3048 12.5291 37.1499 12.3803C36.995 12.2316 36.8722 12.0527 36.7891 11.8547C36.7061 11.6566 36.6645 11.4437 36.667 11.2289H40.173C40.173 11.2289 40.201 10.9539 40.201 10.8289C40.2301 10.5406 40.1976 10.2493 40.1057 9.97443C40.0138 9.69956 39.8645 9.44736 39.6677 9.23454C39.471 9.02171 39.2312 8.85312 38.9644 8.73992C38.6976 8.62673 38.4098 8.57151 38.12 8.57794C37.7922 8.57058 37.4665 8.63172 37.1637 8.75745C36.8608 8.88319 36.5876 9.07075 36.3614 9.30813C36.1352 9.54551 35.9611 9.82749 35.8501 10.136C35.7392 10.4446 35.6938 10.7729 35.717 11.0999H35.715ZM36.694 10.5399C36.7308 10.1955 36.8961 9.87767 37.1569 9.64971C37.4177 9.42175 37.7548 9.30043 38.101 9.30994C38.2601 9.3059 38.4182 9.33539 38.5652 9.39648C38.7121 9.45758 38.8445 9.54891 38.9538 9.66455C39.0631 9.78018 39.1469 9.91753 39.1997 10.0677C39.2524 10.2178 39.273 10.3773 39.26 10.5359L36.694 10.5399ZM41.007 11.0999C41.007 12.5919 41.824 13.6179 43.125 13.6179C43.4457 13.6349 43.7645 13.5599 44.0439 13.4017C44.3233 13.2434 44.5516 13.0086 44.702 12.7249H44.721C44.721 12.7249 44.711 12.8579 44.711 13.0479V13.4999H45.585V6.79294H44.664V9.01594C44.6639 9.12389 44.6703 9.23174 44.683 9.33894H44.664C44.5106 9.08841 44.2911 8.88496 44.0297 8.7509C43.7683 8.61685 43.475 8.55735 43.182 8.57894C42.8683 8.58585 42.5595 8.65858 42.2756 8.79242C41.9918 8.92626 41.7392 9.11822 41.5343 9.35588C41.3293 9.59353 41.1766 9.87158 41.0859 10.172C40.9953 10.4725 40.9677 10.7886 41.007 11.0999ZM41.947 11.0999C41.947 10.0069 42.574 9.37994 43.334 9.37994C44.246 9.37994 44.693 10.2349 44.693 11.0899C44.693 12.3159 44.018 12.8189 43.306 12.8189C42.509 12.8159 41.947 12.1409 41.947 11.0999ZM49.473 13.4999H50.347V13.1479C50.3474 13.0273 50.3411 12.9068 50.328 12.7869H50.347C50.5045 13.0447 50.7267 13.2568 50.9917 13.4019C51.2566 13.547 51.555 13.6201 51.857 13.6139C52.1704 13.6066 52.4789 13.5339 52.7626 13.4006C53.0463 13.2672 53.2991 13.0761 53.5047 12.8395C53.7104 12.6029 53.8644 12.326 53.9569 12.0264C54.0494 11.7269 54.0784 11.4113 54.042 11.0999C54.042 9.60794 53.225 8.58294 51.933 8.58294C51.6265 8.56741 51.3214 8.63517 51.0503 8.77901C50.7792 8.92285 50.552 9.13742 50.393 9.39994H50.374C50.374 9.39994 50.393 9.22894 50.393 8.99094V6.79294H49.473V13.4999ZM50.366 11.1149C50.366 9.88994 51.031 9.38594 51.753 9.38594C52.553 9.38594 53.112 10.0599 53.112 11.1059C53.112 12.1979 52.485 12.8259 51.725 12.8259C50.812 12.8249 50.366 11.9699 50.366 11.1149ZM54.498 15.1999C54.7718 15.39 55.0958 15.4944 55.429 15.4999C55.7748 15.4976 56.1112 15.3869 56.3907 15.1832C56.6702 14.9796 56.8788 14.6934 56.987 14.3649L59.238 8.69294H58.238L57.073 11.8469C56.987 12.0939 56.911 12.4169 56.911 12.4169H56.893C56.893 12.4169 56.807 12.0849 56.712 11.8369L55.505 8.69294H54.47L56.484 13.4429L56.247 13.9939C56.1906 14.1844 56.0777 14.3533 55.9232 14.4783C55.7688 14.6033 55.5801 14.6785 55.382 14.6939C55.1799 14.6816 54.9854 14.6123 54.821 14.4939L54.498 15.1999Z" fill="#222222"/>
</g>
<defs>
<clipPath id="clip0_2_320">
<rect width="71" height="36" fill="white" transform="translate(0 0.5)"/>
</clipPath>
</defs>
</svg>
