<svg width="18" height="20" viewBox="0 0 18 20" fill="none" xmlns="http://www.w3.org/2000/svg">
<g clip-path="url(#clip0_2_233)">
<path d="M17.672 17.182L14.216 13.726C15.056 12.646 15.578 11.428 15.782 10.072C15.974 8.764 15.854 7.48 15.422 6.22C14.966 4.936 14.222 3.841 13.19 2.935C12.158 2.029 10.976 1.426 9.644 1.126C8.348 0.838001 7.064 0.874001 5.792 1.234C4.472 1.606 3.326 2.272 2.354 3.232C1.382 4.192 0.703999 5.326 0.319999 6.634C-0.0520008 7.918 -0.106001 9.208 0.157999 10.504C0.433999 11.836 1.022 13.021 1.922 14.059C2.822 15.097 3.914 15.856 5.198 16.336C6.434 16.792 7.712 16.924 9.032 16.732C10.388 16.552 11.612 16.048 12.704 15.22L16.178 18.694C16.382 18.898 16.631 19 16.925 19C17.219 19 17.471 18.895 17.681 18.685C17.891 18.475 17.993 18.223 17.987 17.929C17.981 17.635 17.876 17.386 17.672 17.182ZM3.83 13.024C3.182 12.376 2.717 11.629 2.435 10.783C2.153 9.937 2.066 9.067 2.174 8.173C2.282 7.279 2.591 6.454 3.101 5.698C3.611 4.942 4.253 4.342 5.027 3.898C5.801 3.454 6.635 3.199 7.529 3.133C8.423 3.067 9.293 3.211 10.139 3.565C10.985 3.919 11.702 4.432 12.29 5.104C12.878 5.776 13.289 6.547 13.523 7.417C13.757 8.287 13.784 9.166 13.604 10.054C13.424 10.942 13.061 11.743 12.515 12.457C11.969 13.171 11.294 13.726 10.49 14.122C9.686 14.518 8.828 14.716 7.916 14.716C7.148 14.716 6.41 14.569 5.702 14.275C4.994 13.981 4.37 13.564 3.83 13.024Z" fill="white"/>
</g>
<defs>
<clipPath id="clip0_2_233">
<rect width="18" height="20" fill="white" transform="matrix(1 0 0 -1 0 20)"/>
</clipPath>
</defs>
</svg>
