<svg width="18" height="19" viewBox="0 0 18 19" fill="none" xmlns="http://www.w3.org/2000/svg">
<path d="M16.8285 3.52072C16.4065 3.01437 15.7812 2.72195 15.1221 2.72275H3.14297L3.11186 2.46269C2.98004 1.34383 2.032 0.500524 0.905402 0.5L0.740918 0.5C0.33172 0.5 0 0.83172 0 1.24092C0 1.65012 0.33172 1.98184 0.740918 1.98184H0.905402C1.28093 1.98184 1.59712 2.26293 1.64112 2.63597L2.66064 11.3048C2.87972 13.1709 4.46112 14.5775 6.34004 14.5774H14.0774C14.4866 14.5774 14.8184 14.2457 14.8184 13.8365C14.8184 13.4273 14.4866 13.0956 14.0774 13.0956H6.34004C5.40036 13.093 4.56387 12.4997 4.25065 11.6138H13.0824C14.8752 11.6138 16.4106 10.3303 16.7285 8.56615L17.3101 5.34042C17.4276 4.69244 17.2512 4.02573 16.8285 3.52072ZM15.8556 5.07739L15.2733 8.30335C15.0823 9.3631 14.1592 10.1336 13.0824 10.1319H4.01504L3.31783 4.20459H15.1221C15.3425 4.20327 15.552 4.30011 15.6938 4.46881C15.8355 4.6375 15.8949 4.86055 15.8556 5.07739Z" fill="#F8F8F8"/>
<circle cx="4.93542" cy="16.6368" r="1.64514" fill="#F8F8F8"/>
<circle cx="12.6127" cy="16.6368" r="1.64514" fill="#F8F8F8"/>
</svg>
