<svg width="18" height="32" viewBox="0 0 18 32" fill="none" xmlns="http://www.w3.org/2000/svg">
<g clip-path="url(#clip0_2_238)">
<path d="M9.0135 16.095C10.1015 16.095 11.1055 15.827 12.0255 15.291C12.9455 14.755 13.6735 14.027 14.2095 13.107C14.7455 12.187 15.0135 11.183 15.0135 10.095C15.0135 9.007 14.7455 8.003 14.2095 7.083C13.6735 6.163 12.9455 5.435 12.0255 4.899C11.1055 4.363 10.1015 4.095 9.0135 4.095C7.9255 4.095 6.9215 4.363 6.0015 4.899C5.0815 5.435 4.3535 6.163 3.8175 7.083C3.2815 8.003 3.0135 9.007 3.0135 10.095C3.0135 11.183 3.2815 12.187 3.8175 13.107C4.3535 14.027 5.0815 14.755 6.0015 15.291C6.9215 15.827 7.9255 16.095 9.0135 16.095ZM9.0135 6.087C9.7335 6.087 10.4015 6.267 11.0175 6.627C11.6335 6.987 12.1215 7.475 12.4815 8.091C12.8415 8.707 13.0215 9.375 13.0215 10.095C13.0215 10.815 12.8415 11.483 12.4815 12.099C12.1215 12.715 11.6335 13.203 11.0175 13.563C10.4015 13.923 9.7335 14.103 9.0135 14.103C8.2935 14.103 7.6255 13.923 7.0095 13.563C6.3935 13.203 5.9055 12.715 5.5455 12.099C5.1855 11.483 5.0055 10.815 5.0055 10.095C5.0055 9.375 5.1855 8.707 5.5455 8.091C5.9055 7.475 6.3935 6.987 7.0095 6.627C7.6255 6.267 8.2935 6.087 9.0135 6.087ZM9.0135 18.087C7.3815 18.087 5.8695 18.495 4.4775 19.311C3.1175 20.111 2.0375 21.191 1.2375 22.551C0.421501 23.943 0.0135007 25.455 0.0135007 27.087C-0.0184993 27.279 0.00550066 27.467 0.0855007 27.651C0.165501 27.835 0.289501 27.979 0.457501 28.083C0.625501 28.187 0.809501 28.239 1.0095 28.239C1.2095 28.239 1.3935 28.187 1.5615 28.083C1.7295 27.979 1.8535 27.835 1.9335 27.651C2.0135 27.467 2.0375 27.279 2.0055 27.087C2.0055 25.823 2.3255 24.647 2.9655 23.559C3.5895 22.503 4.4295 21.663 5.4855 21.039C6.5735 20.399 7.7495 20.079 9.0135 20.079C10.2775 20.079 11.4535 20.399 12.5415 21.039C13.5975 21.663 14.4375 22.503 15.0615 23.559C15.7015 24.647 16.0215 25.823 16.0215 27.087C16.0535 27.327 16.1655 27.531 16.3575 27.699C16.5495 27.867 16.7695 27.951 17.0175 27.951C17.2655 27.951 17.4855 27.867 17.6775 27.699C17.8695 27.531 17.9815 27.327 18.0135 27.087C18.0135 25.455 17.6055 23.943 16.7895 22.551C15.9895 21.191 14.9095 20.111 13.5495 19.311C12.1575 18.495 10.6455 18.087 9.0135 18.087Z" fill="black"/>
</g>
<defs>
<clipPath id="clip0_2_238">
<rect width="18" height="31.19" fill="white" transform="matrix(1 0 0 -1 0 31.69)"/>
</clipPath>
</defs>
</svg>
